<svg width="800" height="600" viewBox="0 0 800 600" fill="none" xmlns="http://www.w3.org/2000/svg">
  <!-- Sky background -->
  <rect width="800" height="600" fill="#E3F2FD"/>
  
  <!-- Sun -->
  <circle cx="650" cy="100" r="50" fill="#FFEB3B"/>
  
  <!-- Ground/Grass -->
  <rect x="0" y="450" width="800" height="150" fill="#81C784"/>
  <rect x="0" y="450" width="800" height="10" fill="#558B2F"/>
  
  <!-- Path to building -->
  <path d="M350 600 L350 450 L450 450 L450 600" fill="#E0E0E0"/>
  <path d="M360 600 L360 460 L380 460 L380 600" fill="#BDBDBD"/>
  <path d="M420 600 L420 460 L440 460 L440 600" fill="#BDBDBD"/>
  
  <!-- Main Historic Building Structure -->
  <rect x="200" y="150" width="400" height="300" fill="#EFEBE9"/>
  
  <!-- Building details -->
  <rect x="200" y="150" width="400" height="15" fill="#795548"/>  <!-- Top border -->
  <rect x="200" y="435" width="400" height="15" fill="#795548"/>  <!-- Bottom border -->
  <rect x="200" y="150" width="15" height="300" fill="#8D6E63"/>  <!-- Left border -->
  <rect x="585" y="150" width="15" height="300" fill="#8D6E63"/>  <!-- Right border -->
  
  <!-- Main entrance -->
  <rect x="350" y="350" width="100" height="100" fill="#5D4037"/>
  <rect x="360" y="360" width="80" height="90" fill="#8D6E63"/>
  <rect x="390" y="360" width="20" height="90" fill="#5D4037"/>
  <circle cx="380" cy="400" r="5" fill="#FFC107"/>  <!-- Door knob -->
  
  <!-- Entrance steps -->
  <rect x="350" y="450" width="100" height="10" fill="#795548"/>
  <rect x="360" y="460" width="80" height="10" fill="#8D6E63"/>
  <rect x="370" y="470" width="60" height="10" fill="#795548"/>
  
  <!-- Windows - Left side -->
  <rect x="230" y="200" width="60" height="80" fill="#90CAF9"/>
  <path d="M230 200 L290 200 L290 280 L230 280 Z" stroke="#5D4037" stroke-width="5" fill="none"/>
  <path d="M260 200 L260 280" stroke="#5D4037" stroke-width="3"/>
  <path d="M230 240 L290 240" stroke="#5D4037" stroke-width="3"/>
  
  <rect x="230" y="310" width="60" height="80" fill="#90CAF9"/>
  <path d="M230 310 L290 310 L290 390 L230 390 Z" stroke="#5D4037" stroke-width="5" fill="none"/>
  <path d="M260 310 L260 390" stroke="#5D4037" stroke-width="3"/>
  <path d="M230 350 L290 350" stroke="#5D4037" stroke-width="3"/>
  
  <!-- Windows - Right side -->
  <rect x="510" y="200" width="60" height="80" fill="#90CAF9"/>
  <path d="M510 200 L570 200 L570 280 L510 280 Z" stroke="#5D4037" stroke-width="5" fill="none"/>
  <path d="M540 200 L540 280" stroke="#5D4037" stroke-width="3"/>
  <path d="M510 240 L570 240" stroke="#5D4037" stroke-width="3"/>
  
  <rect x="510" y="310" width="60" height="80" fill="#90CAF9"/>
  <path d="M510 310 L570 310 L570 390 L510 390 Z" stroke="#5D4037" stroke-width="5" fill="none"/>
  <path d="M540 310 L540 390" stroke="#5D4037" stroke-width="3"/>
  <path d="M510 350 L570 350" stroke="#5D4037" stroke-width="3"/>
  
  <!-- Top windows -->
  <rect x="320" y="180" width="160" height="60" fill="#90CAF9"/>
  <path d="M320 180 L480 180 L480 240 L320 240 Z" stroke="#5D4037" stroke-width="5" fill="none"/>
  <path d="M360 180 L360 240" stroke="#5D4037" stroke-width="3"/>
  <path d="M400 180 L400 240" stroke="#5D4037" stroke-width="3"/>
  <path d="M440 180 L440 240" stroke="#5D4037" stroke-width="3"/>
  <path d="M320 210 L480 210" stroke="#5D4037" stroke-width="3"/>
  
  <!-- Decorative elements -->
  <path d="M200 150 L400 100 L600 150" fill="#A1887F"/>  <!-- Roof -->
  <rect x="390" y="80" width="20" height="30" fill="#5D4037"/>  <!-- Chimney -->
  <circle cx="400" cy="160" r="15" fill="#5D4037"/>  <!-- Decorative circle above entrance -->
  
  <!-- Clock on the building -->
  <circle cx="400" cy="300" r="30" fill="#FFECB3"/>
  <circle cx="400" cy="300" r="25" fill="#FFF8E1"/>
  <path d="M400 300 L400 285" stroke="#5D4037" stroke-width="2"/>  <!-- Hour hand -->
  <path d="M400 300 L415 300" stroke="#5D4037" stroke-width="2"/>  <!-- Minute hand -->
  
  <!-- Trees and decoration -->
  <ellipse cx="150" cy="450" rx="30" ry="80" fill="#43A047"/>
  <rect x="145" y="450" width="10" height="50" fill="#5D4037"/>
  
  <ellipse cx="650" cy="450" rx="30" ry="80" fill="#43A047"/>
  <rect x="645" y="450" width="10" height="50" fill="#5D4037"/>
  
  <!-- Small decorative plants -->
  <ellipse cx="300" cy="480" rx="10" ry="20" fill="#66BB6A"/>
  <ellipse cx="500" cy="480" rx="10" ry="20" fill="#66BB6A"/>
  
  <!-- Bench -->
  <rect x="250" y="500" width="60" height="10" fill="#8D6E63"/>
  <rect x="260" y="510" width="10" height="15" fill="#5D4037"/>
  <rect x="290" y="510" width="10" height="15" fill="#5D4037"/>
</svg> 