<svg width="40" height="40" viewBox="0 0 40 40" fill="none" xmlns="http://www.w3.org/2000/svg">
  <circle cx="20" cy="20" r="20" fill="#2D6A4F"/>
  <path d="M11 14C11 12.8954 11.8954 12 13 12H27C28.1046 12 29 12.8954 29 14V26C29 27.1046 28.1046 28 27 28H13C11.8954 28 11 27.1046 11 26V14Z" fill="#74C69D"/>
  <path d="M16.9688 23H15.1094V16.125H19.0547V17.6406H16.9688V18.9453H18.8281V20.4609H16.9688V23ZM22.6719 19.5469H24.3281C24.3281 20.0469 24.2526 20.4896 24.1016 20.875C23.9557 21.2552 23.75 21.5781 23.4844 21.8438C23.224 22.1042 22.9115 22.3021 22.5469 22.4375C22.1823 22.5677 21.7839 22.6328 21.3516 22.6328C20.9036 22.6328 20.4948 22.5625 20.125 22.4219C19.7552 22.276 19.4349 22.0677 19.1641 21.7969C18.8932 21.526 18.6797 21.1979 18.5234 20.8125C18.3724 20.4219 18.2969 19.9818 18.2969 19.4922V19.2891C18.2969 18.7995 18.3724 18.3594 18.5234 17.9688C18.6797 17.5781 18.8932 17.25 19.1641 16.9844C19.4401 16.7135 19.763 16.5052 20.1328 16.3594C20.5026 16.2135 20.9036 16.1406 21.3359 16.1406C21.7786 16.1406 22.1797 16.2057 22.5391 16.3359C22.9036 16.4661 23.2188 16.6641 23.4844 16.9297C23.75 17.1901 23.9557 17.513 24.1016 17.8984C24.2526 18.2839 24.3281 18.7292 24.3281 19.2344H22.6719C22.6719 18.9844 22.6458 18.7682 22.5938 18.5859C22.5469 18.4036 22.4766 18.2552 22.3828 18.1406C22.2891 18.026 22.1719 17.9427 22.0312 17.8906C21.8906 17.8333 21.7266 17.8047 21.5391 17.8047C21.3464 17.8047 21.1797 17.8359 21.0391 17.8984C20.8984 17.9609 20.7812 18.0573 20.6875 18.1875C20.5938 18.3177 20.5234 18.4844 20.4766 18.6875C20.4349 18.8906 20.4141 19.1328 20.4141 19.4141V19.6172C20.4141 19.8984 20.4349 20.1406 20.4766 20.3438C20.5234 20.5469 20.5938 20.7135 20.6875 20.8438C20.7812 20.974 20.8984 21.0703 21.0391 21.1328C21.1797 21.1953 21.3464 21.2266 21.5391 21.2266C21.7318 21.2266 21.901 21.1979 22.0469 21.1406C22.1927 21.0833 22.3125 21 22.4062 20.8906C22.5 20.776 22.5703 20.6354 22.6172 20.4688C22.6641 20.2969 22.6875 19.2656 22.6719 19.5469Z" fill="white"/>
  <path d="M9 30L15 24M25 24L31 30" stroke="#2D6A4F" stroke-width="2"/>
  <path d="M15 30C15 27.7909 17.2386 26 20 26C22.7614 26 25 27.7909 25 30" stroke="#2D6A4F" stroke-width="2"/>
</svg> 