<svg width="300" height="300" viewBox="0 0 300 300" fill="none" xmlns="http://www.w3.org/2000/svg">
  <!-- Background circle -->
  <circle cx="150" cy="150" r="150" fill="#E9F5DB"/>
  
  <!-- Decorative frame -->
  <circle cx="150" cy="150" r="140" stroke="#2D6A4F" stroke-width="3" stroke-dasharray="2 4"/>
  
  <!-- Shoulders/Suit -->
  <path d="M70 240C70 240 100 200 150 200C200 200 230 240 230 240V300H70V240Z" fill="#2D6A4F"/>
  <path d="M140 220V270" stroke="#1B4332" stroke-width="3"/>
  <path d="M160 220V270" stroke="#1B4332" stroke-width="3"/>
  
  <!-- Collar -->
  <path d="M120 200L150 230L180 200" stroke="white" stroke-width="3"/>
  
  <!-- Neck -->
  <path d="M120 200C120 200 135 190 150 190C165 190 180 200 180 200V160C180 160 165 150 150 150C135 150 120 160 120 160V200Z" fill="#F8D5B8"/>
  
  <!-- Head -->
  <circle cx="150" cy="110" r="60" fill="#F8D5B8"/>
  
  <!-- Hair -->
  <path d="M100 100C100 100 110 50 150 50C190 50 200 100 200 100" fill="#808080"/>
  <path d="M100 100C100 100 110 50 150 50C190 50 200 100 200 100" stroke="#808080" stroke-width="20"/>
  
  <!-- Ears -->
  <ellipse cx="90" cy="110" rx="10" ry="15" fill="#F8D5B8"/>
  <ellipse cx="210" cy="110" rx="10" ry="15" fill="#F8D5B8"/>
  
  <!-- Eyes -->
  <ellipse cx="130" cy="100" rx="8" ry="6" fill="white"/>
  <ellipse cx="170" cy="100" rx="8" ry="6" fill="white"/>
  <circle cx="130" cy="100" r="3" fill="#4B3621"/>
  <circle cx="170" cy="100" r="3" fill="#4B3621"/>
  
  <!-- Eyebrows -->
  <path d="M120 90C120 90 130 85 140 90" stroke="#808080" stroke-width="2"/>
  <path d="M160 90C160 90 170 85 180 90" stroke="#808080" stroke-width="2"/>
  
  <!-- Nose -->
  <path d="M150 100L145 120H155Z" fill="#F8D5B8"/>
  <path d="M145 120H155" stroke="#F8D5B8" stroke-width="2"/>
  
  <!-- Mouth -->
  <path d="M135 135C135 135 145 145 165 135" stroke="#A52A2A" stroke-width="2"/>
  
  <!-- Glasses -->
  <rect x="120" y="92" width="20" height="16" rx="5" stroke="#5A3825" stroke-width="2" fill="none"/>
  <rect x="160" y="92" width="20" height="16" rx="5" stroke="#5A3825" stroke-width="2" fill="none"/>
  <path d="M140 100L160 100" stroke="#5A3825" stroke-width="2"/>
  
  <!-- Decorative badge -->
  <circle cx="185" cy="210" r="15" fill="#FFD700"/>
  <path d="M185 200L187 205H193L188 209L190 215L185 211L180 215L182 209L177 205H183L185 200Z" fill="#2D6A4F"/>
  
  <!-- Name tag -->
  <rect x="120" y="240" width="60" height="20" rx="5" fill="white"/>
  <text x="150" y="254" font-family="Arial" font-size="10" text-anchor="middle" fill="#2D6A4F">MAYOR</text>
</svg> 