<svg width="1200" height="400" viewBox="0 0 1200 400" fill="none" xmlns="http://www.w3.org/2000/svg">
  <!-- Background -->
  <rect width="1200" height="400" fill="#2D6A4F" opacity="0.1"/>
  
  <!-- Village green -->
  <rect y="150" width="1200" height="250" fill="#B7E4C7" opacity="0.7"/>
  
  <!-- Decorative bunting -->
  <path d="M100 80L1100 80" stroke="#F9DEDE" stroke-width="3" stroke-dasharray="0 0"/>
  
  <!-- Bunting triangles -->
  <g>
    <!-- First row -->
    <path d="M100 80L120 120L140 80" fill="#F94144"/>
    <path d="M180 80L200 120L220 80" fill="#F3722C"/>
    <path d="M260 80L280 120L300 80" fill="#F8961E"/>
    <path d="M340 80L360 120L380 80" fill="#F9C74F"/>
    <path d="M420 80L440 120L460 80" fill="#90BE6D"/>
    <path d="M500 80L520 120L540 80" fill="#43AA8B"/>
    <path d="M580 80L600 120L620 80" fill="#577590"/>
    <path d="M660 80L680 120L700 80" fill="#F94144"/>
    <path d="M740 80L760 120L780 80" fill="#F3722C"/>
    <path d="M820 80L840 120L860 80" fill="#F8961E"/>
    <path d="M900 80L920 120L940 80" fill="#F9C74F"/>
    <path d="M980 80L1000 120L1020 80" fill="#90BE6D"/>
    <path d="M1060 80L1080 120L1100 80" fill="#43AA8B"/>
  </g>
  
  <!-- Central stage -->
  <rect x="450" y="280" width="300" height="100" fill="#D8A48F"/>
  <rect x="450" y="260" width="300" height="20" fill="#BB8588"/>
  
  <!-- Stage microphone stand -->
  <rect x="595" y="200" width="10" height="80" fill="#555555"/>
  <circle cx="600" cy="190" r="10" fill="#333333"/>
  
  <!-- Village people silhouettes -->
  <!-- Group 1 - left -->
  <g transform="translate(200, 320)">
    <circle cx="0" cy="-40" r="15" fill="#333333"/> <!-- head -->
    <rect x="-10" y="-25" width="20" height="30" fill="#333333"/> <!-- body -->
    <rect x="-15" y="5" width="10" height="20" fill="#333333"/> <!-- leg -->
    <rect x="5" y="5" width="10" height="20" fill="#333333"/> <!-- leg -->
    <rect x="-20" y="-20" width="8" height="20" fill="#333333" transform="rotate(-20 -20 -20)"/> <!-- arm -->
    <rect x="15" y="-20" width="8" height="15" fill="#333333" transform="rotate(30 15 -20)"/> <!-- arm -->
  </g>
  
  <g transform="translate(240, 325)">
    <circle cx="0" cy="-35" r="13" fill="#444444"/> <!-- head -->
    <rect x="-8" y="-22" width="16" height="25" fill="#444444"/> <!-- body -->
    <rect x="-12" y="3" width="8" height="18" fill="#444444"/> <!-- leg -->
    <rect x="4" y="3" width="8" height="18" fill="#444444"/> <!-- leg -->
  </g>
  
  <g transform="translate(270, 330)">
    <circle cx="0" cy="-25" r="10" fill="#333333"/> <!-- head -->
    <rect x="-7" y="-15" width="14" height="20" fill="#333333"/> <!-- body -->
    <rect x="-10" y="5" width="7" height="15" fill="#333333"/> <!-- leg -->
    <rect x="3" y="5" width="7" height="15" fill="#333333"/> <!-- leg -->
  </g>
  
  <!-- Group 2 - right -->
  <g transform="translate(950, 325)">
    <circle cx="0" cy="-40" r="15" fill="#333333"/> <!-- head -->
    <rect x="-10" y="-25" width="20" height="30" fill="#333333"/> <!-- body -->
    <rect x="-15" y="5" width="10" height="20" fill="#333333"/> <!-- leg -->
    <rect x="5" y="5" width="10" height="20" fill="#333333"/> <!-- leg -->
  </g>
  
  <g transform="translate(990, 320)">
    <circle cx="0" cy="-35" r="13" fill="#444444"/> <!-- head -->
    <rect x="-8" y="-22" width="16" height="25" fill="#444444"/> <!-- body -->
    <rect x="-12" y="3" width="8" height="18" fill="#444444"/> <!-- leg -->
    <rect x="4" y="3" width="8" height="18" fill="#444444"/> <!-- leg -->
  </g>
  
  <g transform="translate(920, 330)">
    <circle cx="0" cy="-25" r="10" fill="#333333"/> <!-- head -->
    <rect x="-7" y="-15" width="14" height="20" fill="#333333"/> <!-- body -->
    <rect x="-10" y="5" width="7" height="15" fill="#333333"/> <!-- leg -->
    <rect x="3" y="5" width="7" height="15" fill="#333333"/> <!-- leg -->
  </g>
  
  <!-- Group 3 - audience -->
  <!-- Row 1 -->
  <g>
    <g transform="translate(350, 350)">
      <circle cx="0" cy="-25" r="10" fill="#333333"/>
      <rect x="-7" y="-15" width="14" height="20" fill="#333333"/>
    </g>
    
    <g transform="translate(380, 350)">
      <circle cx="0" cy="-25" r="10" fill="#444444"/>
      <rect x="-7" y="-15" width="14" height="20" fill="#444444"/>
    </g>
    
    <g transform="translate(410, 350)">
      <circle cx="0" cy="-25" r="10" fill="#333333"/>
      <rect x="-7" y="-15" width="14" height="20" fill="#333333"/>
    </g>
    
    <g transform="translate(790, 350)">
      <circle cx="0" cy="-25" r="10" fill="#333333"/>
      <rect x="-7" y="-15" width="14" height="20" fill="#333333"/>
    </g>
    
    <g transform="translate(820, 350)">
      <circle cx="0" cy="-25" r="10" fill="#444444"/>
      <rect x="-7" y="-15" width="14" height="20" fill="#444444"/>
    </g>
    
    <g transform="translate(850, 350)">
      <circle cx="0" cy="-25" r="10" fill="#333333"/>
      <rect x="-7" y="-15" width="14" height="20" fill="#333333"/>
    </g>
  </g>
  
  <!-- Musical notes -->
  <g>
    <path d="M620 180C620 180 625 160 635 165C645 170 630 190 620 180Z" fill="#90BE6D"/>
    <path d="M620 180L620 220" stroke="#90BE6D" stroke-width="3"/>
    
    <path d="M650 200C650 200 655 180 665 185C675 190 660 210 650 200Z" fill="#F9C74F"/>
    <path d="M650 200L650 240" stroke="#F9C74F" stroke-width="3"/>
    
    <path d="M580 190C580 190 585 170 595 175C605 180 590 200 580 190Z" fill="#F94144"/>
    <path d="M580 190L580 230" stroke="#F94144" stroke-width="3"/>
  </g>
  
  <!-- Market stalls in background -->
  <g>
    <rect x="100" y="200" width="80" height="60" fill="#BB8588"/>
    <path d="M90 200L190 200L170 170L110 170L90 200Z" fill="#D8A48F"/>
    
    <rect x="1020" y="200" width="80" height="60" fill="#BB8588"/>
    <path d="M1010 200L1110 200L1090 170L1030 170L1010 200Z" fill="#D8A48F"/>
  </g>
  
  <!-- Banner text -->
  <g transform="translate(600, 40)">
    <rect x="-250" y="-20" width="500" height="40" rx="10" fill="#2D6A4F" opacity="0.8"/>
    <text x="0" y="7" font-family="Arial" font-size="24" font-weight="bold" fill="white" text-anchor="middle" dominant-baseline="middle">VILLAGE EVENTS</text>
  </g>
</svg> 