<svg width="800" height="500" viewBox="0 0 800 500" fill="none" xmlns="http://www.w3.org/2000/svg">
  <!-- Sky background -->
  <rect width="800" height="500" fill="#E0F2F1"/>
  
  <!-- Ground -->
  <rect y="350" width="800" height="150" fill="#AEC09A"/>
  
  <!-- Market square pavement -->
  <rect x="100" y="350" width="600" height="150" fill="#D3D3D3"/>
  <rect x="100" y="375" width="600" height="5" fill="#A9A9A9"/>
  <rect x="100" y="425" width="600" height="5" fill="#A9A9A9"/>
  <rect x="100" y="475" width="600" height="5" fill="#A9A9A9"/>
  
  <rect x="150" y="350" width="5" height="150" fill="#A9A9A9"/>
  <rect x="250" y="350" width="5" height="150" fill="#A9A9A9"/>
  <rect x="350" y="350" width="5" height="150" fill="#A9A9A9"/>
  <rect x="450" y="350" width="5" height="150" fill="#A9A9A9"/>
  <rect x="550" y="350" width="5" height="150" fill="#A9A9A9"/>
  <rect x="650" y="350" width="5" height="150" fill="#A9A9A9"/>
  
  <!-- Vegetable stand -->
  <g transform="translate(200, 300)">
    <rect x="-60" y="0" width="120" height="80" fill="#8B4513"/>
    <rect x="-50" y="-15" width="100" height="15" fill="#A0522D"/>
    <path d="M-60 0L-70 -30L70 -30L60 0" fill="#B22222" opacity="0.9"/>
    
    <!-- Vegetables on display -->
    <!-- Carrots -->
    <g transform="translate(-30, 20)">
      <path d="M-10 0L0 15L10 0" fill="#FF8C00"/>
      <path d="M-7 -5L0 10L7 -5" fill="#FF8C00"/>
      <path d="M-5 -10L0 5L5 -10" fill="#FF8C00"/>
      <rect x="-5" y="-20" width="10" height="10" fill="#228B22"/>
    </g>
    
    <!-- Tomatoes -->
    <g transform="translate(0, 20)">
      <circle cx="-7" cy="0" r="7" fill="#E50000"/>
      <circle cx="7" cy="0" r="7" fill="#E50000"/>
      <circle cx="0" cy="-10" r="7" fill="#E50000"/>
      <path d="M0 -17L-3 -20L3 -20Z" fill="#228B22"/>
    </g>
    
    <!-- Lettuce -->
    <g transform="translate(30, 15)">
      <path d="M0 0C5 -5 10 0 15 -5C10 5 5 0 0 5C-5 0 -10 5 -15 -5C-10 0 -5 -5 0 0Z" fill="#90EE90"/>
      <path d="M0 0C3 -3 6 0 9 -3C6 3 3 0 0 3C-3 0 -6 3 -9 -3C-6 0 -3 -3 0 0Z" fill="#32CD32"/>
    </g>
    
    <!-- Sign -->
    <g transform="translate(0, -40)">
      <rect x="-40" y="-15" width="80" height="30" rx="5" fill="#FFF8DC"/>
      <text x="0" y="0" font-family="Arial" font-size="10" font-weight="bold" text-anchor="middle" dominant-baseline="middle" fill="#8B4513">FRESH PRODUCE</text>
      <text x="0" y="15" font-family="Arial" font-size="8" text-anchor="middle" dominant-baseline="middle" fill="#8B4513">Local & Organic</text>
    </g>
  </g>
  
  <!-- Fruit stand -->
  <g transform="translate(400, 300)">
    <rect x="-60" y="0" width="120" height="80" fill="#8B4513"/>
    <rect x="-50" y="-15" width="100" height="15" fill="#A0522D"/>
    <path d="M-60 0L-70 -30L70 -30L60 0" fill="#4682B4" opacity="0.9"/>
    
    <!-- Fruits on display -->
    <!-- Apples -->
    <g transform="translate(-30, 20)">
      <circle cx="-7" cy="0" r="7" fill="#FF0000"/>
      <circle cx="7" cy="0" r="7" fill="#008000"/>
      <path d="M-7 -7L-7 -12" stroke="#654321" stroke-width="1"/>
      <path d="M7 -7L7 -12" stroke="#654321" stroke-width="1"/>
    </g>
    
    <!-- Bananas -->
    <g transform="translate(0, 15)">
      <path d="M-10 0C-5 -5 0 -8 5 -5C0 0 -5 5 -10 0Z" fill="#FFD700"/>
      <path d="M-5 -2C0 -7 5 -10 10 -7C5 -2 0 3 -5 -2Z" fill="#FFD700"/>
    </g>
    
    <!-- Oranges -->
    <g transform="translate(30, 20)">
      <circle cx="-5" cy="-5" r="5" fill="#FFA500"/>
      <circle cx="5" cy="-5" r="5" fill="#FFA500"/>
      <circle cx="0" cy="5" r="5" fill="#FFA500"/>
    </g>
    
    <!-- Sign -->
    <g transform="translate(0, -40)">
      <rect x="-40" y="-15" width="80" height="30" rx="5" fill="#FFF8DC"/>
      <text x="0" y="0" font-family="Arial" font-size="10" font-weight="bold" text-anchor="middle" dominant-baseline="middle" fill="#8B4513">FRESH FRUITS</text>
      <text x="0" y="15" font-family="Arial" font-size="8" text-anchor="middle" dominant-baseline="middle" fill="#8B4513">Sweet & Juicy</text>
    </g>
  </g>
  
  <!-- Bakery stand -->
  <g transform="translate(600, 300)">
    <rect x="-60" y="0" width="120" height="80" fill="#8B4513"/>
    <rect x="-50" y="-15" width="100" height="15" fill="#A0522D"/>
    <path d="M-60 0L-70 -30L70 -30L60 0" fill="#DAA520" opacity="0.9"/>
    
    <!-- Baked goods on display -->
    <!-- Bread -->
    <g transform="translate(-30, 15)">
      <path d="M-15 5C-15 -5 -5 -10 0 -10C5 -10 15 -5 15 5Z" fill="#F5DEB3"/>
      <line x1="-12" y1="0" x2="12" y2="0" stroke="#CD853F" stroke-width="1"/>
    </g>
    
    <!-- Croissants -->
    <g transform="translate(0, 20)">
      <path d="M-10 -5C-5 -10 0 -5 5 0C0 5 -5 10 -10 5Z" fill="#F5DEB3"/>
      <path d="M0 -5C5 -10 10 -5 15 0C10 5 5 10 0 5Z" fill="#F5DEB3"/>
    </g>
    
    <!-- Cupcakes -->
    <g transform="translate(30, 20)">
      <rect x="-5" y="-5" width="10" height="10" rx="1" fill="#CD853F"/>
      <path d="M-7 -5C-7 -10 -3 -15 0 -15C3 -15 7 -10 7 -5Z" fill="#FFB6C1"/>
      <circle cx="0" cy="-12" r="1" fill="#FF0000"/>
    </g>
    
    <!-- Sign -->
    <g transform="translate(0, -40)">
      <rect x="-40" y="-15" width="80" height="30" rx="5" fill="#FFF8DC"/>
      <text x="0" y="0" font-family="Arial" font-size="10" font-weight="bold" text-anchor="middle" dominant-baseline="middle" fill="#8B4513">VILLAGE BAKERY</text>
      <text x="0" y="15" font-family="Arial" font-size="8" text-anchor="middle" dominant-baseline="middle" fill="#8B4513">Fresh Daily</text>
    </g>
  </g>
  
  <!-- People browsing -->
  <!-- Person 1 -->
  <g transform="translate(200, 400)">
    <circle cx="0" cy="-40" r="15" fill="#8D6E63"/>
    <rect x="-10" y="-25" width="20" height="30" fill="#4CAF50"/>
    <rect x="-15" y="5" width="10" height="20" fill="#795548"/>
    <rect x="5" y="5" width="10" height="20" fill="#795548"/>
    <circle cx="10" cy="-15" r="12" fill="#FFF8DC"/>
  </g>
  
  <!-- Person 2 -->
  <g transform="translate(350, 420)">
    <circle cx="0" cy="-40" r="15" fill="#A1887F"/>
    <rect x="-10" y="-25" width="20" height="30" fill="#3F51B5"/>
    <rect x="-15" y="5" width="10" height="20" fill="#212121"/>
    <rect x="5" y="5" width="10" height="20" fill="#212121"/>
    <rect x="-15" y="-15" width="10" height="5" fill="#3F51B5"/>
    <rect x="15" y="-15" width="10" height="5" fill="#3F51B5" transform="rotate(80 15 -15)"/>
    <circle cx="-20" cy="0" r="5" fill="#FFD700"/>
  </g>
  
  <!-- Person 3 -->
  <g transform="translate(550, 420)">
    <circle cx="0" cy="-35" r="13" fill="#D7CCC8"/>
    <rect x="-8" y="-22" width="16" height="25" fill="#FF9800"/>
    <rect x="-12" y="3" width="8" height="18" fill="#5D4037"/>
    <rect x="4" y="3" width="8" height="18" fill="#5D4037"/>
    <rect x="-15" y="-15" width="30" height="10" fill="#FFF8DC" transform="rotate(-10 -15 -15)"/>
  </g>
  
  <!-- Person 4 - child -->
  <g transform="translate(500, 400)">
    <circle cx="0" cy="-25" r="10" fill="#BCAAA4"/>
    <rect x="-7" y="-15" width="14" height="20" fill="#E91E63"/>
    <rect x="-10" y="5" width="7" height="15" fill="#3E2723"/>
    <rect x="3" y="5" width="7" height="15" fill="#3E2723"/>
    <circle cx="5" cy="0" r="7" fill="#FFD700"/>
  </g>
  
  <!-- Birds in sky -->
  <path d="M150 100C155 95 160 100 165 95C160 105 155 100 150 110C145 100 140 105 135 95C140 100 145 95 150 100Z" fill="#607D8B"/>
  <path d="M200 120C203 117 206 120 209 117C206 123 203 120 200 126C197 120 194 123 191 117C194 120 197 117 200 120Z" fill="#607D8B"/>
  <path d="M250 110C253 107 256 110 259 107C256 113 253 110 250 116C247 110 244 113 241 107C244 110 247 107 250 110Z" fill="#607D8B"/>
  
  <!-- Clouds -->
  <g opacity="0.8">
    <circle cx="150" cy="80" r="30" fill="white"/>
    <circle cx="180" cy="70" r="20" fill="white"/>
    <circle cx="180" cy="90" r="25" fill="white"/>
    <circle cx="210" cy="80" r="20" fill="white"/>
  </g>
  
  <g opacity="0.6">
    <circle cx="550" cy="100" r="25" fill="white"/>
    <circle cx="580" cy="90" r="15" fill="white"/>
    <circle cx="580" cy="110" r="20" fill="white"/>
    <circle cx="610" cy="100" r="15" fill="white"/>
  </g>
  
  <!-- Title banner -->
  <g transform="translate(400, 100)">
    <rect x="-200" y="-30" width="400" height="60" rx="10" fill="#2D6A4F" opacity="0.9"/>
    <text x="0" y="0" font-family="Arial" font-size="24" font-weight="bold" fill="white" text-anchor="middle" dominant-baseline="middle">FARMERS MARKET</text>
    <text x="0" y="25" font-family="Arial" font-size="16" fill="white" text-anchor="middle" dominant-baseline="middle">Fresh Local Produce & Crafts</text>
  </g>
</svg> 