<svg width="400" height="300" viewBox="0 0 400 300" fill="none" xmlns="http://www.w3.org/2000/svg">
  <!-- Background hills -->
  <path d="M0 300H400V200C350 180 300 220 250 200C200 180 150 220 100 200C50 180 0 220 0 200V300Z" fill="#B7E4C7"/>
  
  <!-- Field -->
  <path d="M0 300H400V240C350 245 300 235 250 245C200 255 150 240 100 250C50 260 0 250 0 240V300Z" fill="#95D5B2"/>
  
  <!-- Sun -->
  <circle cx="350" cy="80" r="40" fill="#FCD34D"/>
  <circle cx="350" cy="80" r="50" fill="#FCD34D" opacity="0.4"/>
  
  <!-- Wheat stalks -->
  <g transform="translate(50, 200)">
    <path d="M0 0V-40" stroke="#D4A657" stroke-width="2"/>
    <path d="M0 -25L-10 -35" stroke="#D4A657" stroke-width="1.5"/>
    <path d="M0 -30L10 -40" stroke="#D4A657" stroke-width="1.5"/>
    <path d="M0 -35L-8 -43" stroke="#D4A657" stroke-width="1.5"/>
  </g>
  
  <g transform="translate(80, 210)">
    <path d="M0 0V-45" stroke="#D4A657" stroke-width="2"/>
    <path d="M0 -25L-10 -35" stroke="#D4A657" stroke-width="1.5"/>
    <path d="M0 -30L10 -40" stroke="#D4A657" stroke-width="1.5"/>
    <path d="M0 -35L-8 -43" stroke="#D4A657" stroke-width="1.5"/>
    <path d="M0 -40L6 -48" stroke="#D4A657" stroke-width="1.5"/>
  </g>
  
  <g transform="translate(110, 205)">
    <path d="M0 0V-40" stroke="#D4A657" stroke-width="2"/>
    <path d="M0 -25L-10 -35" stroke="#D4A657" stroke-width="1.5"/>
    <path d="M0 -30L10 -40" stroke="#D4A657" stroke-width="1.5"/>
    <path d="M0 -35L-8 -43" stroke="#D4A657" stroke-width="1.5"/>
  </g>
  
  <!-- Autumn tree -->
  <g transform="translate(200, 200)">
    <path d="M0 0V-80" stroke="#8B5E3C" stroke-width="12"/>
    <circle cx="-35" cy="-90" r="25" fill="#D8572A"/>
    <circle cx="0" cy="-120" r="30" fill="#DB7C26"/>
    <circle cx="35" cy="-90" r="25" fill="#C94C1E"/>
    <circle cx="10" cy="-80" r="23" fill="#E69329"/>
  </g>
  
  <!-- Baskets -->
  <g transform="translate(300, 240)">
    <path d="M-20 0H20V-20C15 -25 5 -25 0 -20C-5 -25 -15 -25 -20 -20V0Z" fill="#8B5E3C"/>
    <path d="M-15 -5H15V-15C10 -20 5 -20 0 -15C-5 -20 -10 -20 -15 -15V-5Z" fill="#A67C52"/>
    <path d="M-10 0H10" stroke="#8B5E3C" stroke-width="2"/>
  </g>
  
  <!-- Pumpkins -->
  <g transform="translate(250, 250)">
    <circle cx="0" cy="0" r="15" fill="#E69329"/>
    <path d="M0 -15V-20" stroke="#2D6A4F" stroke-width="2"/>
  </g>
  
  <g transform="translate(280, 260)">
    <circle cx="0" cy="0" r="10" fill="#DB7C26"/>
    <path d="M0 -10V-15" stroke="#2D6A4F" stroke-width="2"/>
  </g>
  
  <g transform="translate(320, 255)">
    <circle cx="0" cy="0" r="12" fill="#C94C1E"/>
    <path d="M0 -12V-17" stroke="#2D6A4F" stroke-width="2"/>
  </g>
  
  <!-- Banner text -->
  <g transform="translate(200, 50)">
    <rect x="-150" y="-20" width="300" height="40" rx="10" fill="#2D6A4F" opacity="0.8"/>
    <text x="0" y="5" font-family="Arial" font-size="18" font-weight="bold" fill="white" text-anchor="middle" dominant-baseline="middle">HARVEST FESTIVAL</text>
  </g>
</svg> 