<svg width="800" height="600" viewBox="0 0 800 600" fill="none" xmlns="http://www.w3.org/2000/svg">
  <!-- Sky background -->
  <rect width="800" height="600" fill="#E0F2F1"/>
  
  <!-- Ground -->
  <rect y="400" width="800" height="200" fill="#90BE6D"/>
  
  <!-- Village square pavement -->
  <rect x="100" y="400" width="600" height="200" fill="#D3D3D3"/>
  <rect x="100" y="450" width="600" height="5" fill="#A9A9A9"/>
  <rect x="100" y="500" width="600" height="5" fill="#A9A9A9"/>
  <rect x="100" y="550" width="600" height="5" fill="#A9A9A9"/>
  
  <rect x="150" y="400" width="5" height="200" fill="#A9A9A9"/>
  <rect x="250" y="400" width="5" height="200" fill="#A9A9A9"/>
  <rect x="350" y="400" width="5" height="200" fill="#A9A9A9"/>
  <rect x="450" y="400" width="5" height="200" fill="#A9A9A9"/>
  <rect x="550" y="400" width="5" height="200" fill="#A9A9A9"/>
  <rect x="650" y="400" width="5" height="200" fill="#A9A9A9"/>
  
  <!-- Central fountain -->
  <circle cx="400" cy="450" r="60" fill="#4D7C73"/>
  <circle cx="400" cy="450" r="50" fill="#74C69D"/>
  <circle cx="400" cy="450" r="35" fill="#4D7C73"/>
  <circle cx="400" cy="450" r="5" fill="#white"/>
  
  <!-- Water spray effect -->
  <path d="M400 445C405 435 410 440 415 430C410 440 405 435 400 445Z" fill="white" opacity="0.7"/>
  <path d="M400 445C395 430 390 440 385 425C390 440 395 430 400 445Z" fill="white" opacity="0.7"/>
  <path d="M400 445C405 430 410 435 415 425C405 435 395 435 400 445Z" fill="white" opacity="0.7"/>
  
  <!-- Buildings left side -->
  <g transform="translate(100, 400)">
    <!-- Building 1 -->
    <rect x="0" y="-200" width="100" height="200" fill="#E9F5DB"/>
    <rect x="20" y="-150" width="30" height="50" fill="#B7E4C7"/>
    <rect x="60" y="-150" width="30" height="50" fill="#B7E4C7"/>
    <rect x="20" y="-80" width="30" height="60" fill="#B7E4C7"/>
    <rect x="40" y="-20" width="30" height="20" fill="#4D7C73"/>
    <path d="M0 -200L50 -250L100 -200" fill="#D8A48F"/>
  </g>
  
  <!-- Buildings back center -->
  <g transform="translate(350, 400)">
    <!-- Church or Town Hall -->
    <rect x="-50" y="-250" width="100" height="250" fill="#F5F5DC"/>
    <rect x="-30" y="-150" width="20" height="30" fill="#4D7C73"/>
    <rect x="10" y="-150" width="20" height="30" fill="#4D7C73"/>
    <rect x="-20" y="-80" width="40" height="80" fill="#4D7C73"/>
    <path d="M-50 -250L0 -320L50 -250" fill="#C8553D"/>
    
    <!-- Clock tower -->
    <rect x="-15" y="-350" width="30" height="30" fill="#F5F5DC"/>
    <circle cx="0" cy="-335" r="10" fill="white" stroke="#2D6A4F" stroke-width="2"/>
    <line x1="0" y1="-335" x2="0" y2="-330" stroke="#2D6A4F" stroke-width="2"/>
    <line x1="0" y1="-335" x2="5" y2="-335" stroke="#2D6A4F" stroke-width="2"/>
    <path d="M-15 -350L0 -370L15 -350" fill="#C8553D"/>
  </g>
  
  <!-- Buildings right side -->
  <g transform="translate(600, 400)">
    <!-- Building 2 -->
    <rect x="0" y="-180" width="100" height="180" fill="#FFE8D6"/>
    <rect x="20" y="-150" width="30" height="40" fill="#95D5B2"/>
    <rect x="60" y="-150" width="30" height="40" fill="#95D5B2"/>
    <rect x="20" y="-80" width="30" height="40" fill="#95D5B2"/>
    <rect x="60" y="-80" width="30" height="40" fill="#95D5B2"/>
    <rect x="40" y="-20" width="30" height="20" fill="#2D6A4F"/>
    <path d="M0 -180L50 -230L100 -180" fill="#C8553D"/>
  </g>
  
  <!-- Trees -->
  <g transform="translate(200, 400)">
    <rect x="-5" y="-40" width="10" height="40" fill="#A0522D"/>
    <circle cx="0" cy="-60" r="30" fill="#2D6A4F"/>
  </g>
  
  <g transform="translate(700, 400)">
    <rect x="-5" y="-50" width="10" height="50" fill="#A0522D"/>
    <circle cx="0" cy="-70" r="35" fill="#2D6A4F"/>
  </g>
  
  <!-- Park benches -->
  <g transform="translate(300, 500)">
    <rect x="-20" y="-10" width="40" height="5" fill="#8B4513"/>
    <rect x="-18" y="-5" width="5" height="15" fill="#8B4513"/>
    <rect x="13" y="-5" width="5" height="15" fill="#8B4513"/>
  </g>
  
  <g transform="translate(500, 500)">
    <rect x="-20" y="-10" width="40" height="5" fill="#8B4513"/>
    <rect x="-18" y="-5" width="5" height="15" fill="#8B4513"/>
    <rect x="13" y="-5" width="5" height="15" fill="#8B4513"/>
  </g>
  
  <!-- People silhouettes -->
  <g transform="translate(250, 480)">
    <circle cx="0" cy="-20" r="8" fill="#333333"/>
    <rect x="-5" y="-12" width="10" height="15" fill="#333333"/>
    <rect x="-6" y="3" width="4" height="10" fill="#333333"/>
    <rect x="2" y="3" width="4" height="10" fill="#333333"/>
  </g>
  
  <g transform="translate(550, 480)">
    <circle cx="0" cy="-20" r="8" fill="#333333"/>
    <rect x="-5" y="-12" width="10" height="15" fill="#333333"/>
    <rect x="-6" y="3" width="4" height="10" fill="#333333"/>
    <rect x="2" y="3" width="4" height="10" fill="#333333"/>
  </g>
  
  <g transform="translate(400, 520)">
    <circle cx="0" cy="-20" r="8" fill="#333333"/>
    <rect x="-5" y="-12" width="10" height="15" fill="#333333"/>
    <rect x="-6" y="3" width="4" height="10" fill="#333333"/>
    <rect x="2" y="3" width="4" height="10" fill="#333333"/>
  </g>
  
  <!-- Sun -->
  <circle cx="700" cy="100" r="50" fill="#FFDF5A"/>
  <circle cx="700" cy="100" r="60" fill="#FFDF5A" opacity="0.4"/>
  <circle cx="700" cy="100" r="70" fill="#FFDF5A" opacity="0.2"/>
  
  <!-- Clouds -->
  <g opacity="0.8">
    <circle cx="200" cy="150" r="30" fill="white"/>
    <circle cx="230" cy="140" r="25" fill="white"/>
    <circle cx="260" cy="150" r="20" fill="white"/>
  </g>
  
  <g opacity="0.6">
    <circle cx="500" cy="180" r="25" fill="white"/>
    <circle cx="530" cy="170" r="20" fill="white"/>
    <circle cx="555" cy="180" r="15" fill="white"/>
  </g>
  
  <!-- Birds -->
  <path d="M150 100C155 95 160 100 165 95C160 105 155 100 150 110C145 100 140 105 135 95C140 100 145 95 150 100Z" fill="#607D8B"/>
  <path d="M350 80C353 77 356 80 359 77C356 83 353 80 350 86C347 80 344 83 341 77C344 80 347 77 350 80Z" fill="#607D8B"/>
  
  <!-- Title -->
  <g transform="translate(400, 50)">
    <rect x="-150" y="-25" width="300" height="50" rx="10" fill="#2D6A4F" opacity="0.9"/>
    <text x="0" y="5" font-family="Arial" font-size="20" font-weight="bold" fill="white" text-anchor="middle" dominant-baseline="middle">VILLAGE SQUARE</text>
  </g>
</svg> 