<svg width="24" height="24" viewBox="0 0 24 24" fill="none" xmlns="http://www.w3.org/2000/svg">
  <rect width="24" height="24" rx="12" fill="#2D6A4F" opacity="0.1"/>
  
  <!-- Dashboard elements -->
  <rect x="4" y="4" width="16" height="16" rx="2" fill="#2D6A4F"/>
  
  <!-- Top bar -->
  <rect x="4" y="4" width="16" height="3" rx="1" fill="#95D5B2"/>
  
  <!-- Left sidebar -->
  <rect x="4" y="7" width="3" height="13" fill="#95D5B2" opacity="0.7"/>
  
  <!-- Dashboard widgets -->
  <rect x="8" y="8" width="5" height="4" rx="1" fill="white" opacity="0.9"/>
  <rect x="14" y="8" width="5" height="4" rx="1" fill="white" opacity="0.9"/>
  <rect x="8" y="13" width="5" height="6" rx="1" fill="white" opacity="0.9"/>
  <rect x="14" y="13" width="5" height="6" rx="1" fill="white" opacity="0.9"/>
  
  <!-- Dots for menu -->
  <circle cx="5.5" cy="5.5" r="0.5" fill="white"/>
  <circle cx="7" cy="5.5" r="0.5" fill="white"/>
  <circle cx="8.5" cy="5.5" r="0.5" fill="white"/>
  
  <!-- Widget content lines -->
  <line x1="9" y1="9.5" x2="12" y2="9.5" stroke="#2D6A4F" stroke-width="0.5"/>
  <line x1="9" y1="10.5" x2="11" y2="10.5" stroke="#2D6A4F" stroke-width="0.5"/>
  
  <line x1="15" y1="9.5" x2="18" y2="9.5" stroke="#2D6A4F" stroke-width="0.5"/>
  <line x1="15" y1="10.5" x2="17" y2="10.5" stroke="#2D6A4F" stroke-width="0.5"/>
  
  <line x1="9" y1="14.5" x2="12" y2="14.5" stroke="#2D6A4F" stroke-width="0.5"/>
  <line x1="9" y1="15.5" x2="11" y2="15.5" stroke="#2D6A4F" stroke-width="0.5"/>
  <line x1="9" y1="16.5" x2="12" y2="16.5" stroke="#2D6A4F" stroke-width="0.5"/>
  <line x1="9" y1="17.5" x2="10" y2="17.5" stroke="#2D6A4F" stroke-width="0.5"/>
  
  <line x1="15" y1="14.5" x2="18" y2="14.5" stroke="#2D6A4F" stroke-width="0.5"/>
  <line x1="15" y1="15.5" x2="17" y2="15.5" stroke="#2D6A4F" stroke-width="0.5"/>
  <line x1="15" y1="16.5" x2="18" y2="16.5" stroke="#2D6A4F" stroke-width="0.5"/>
  <line x1="15" y1="17.5" x2="16" y2="17.5" stroke="#2D6A4F" stroke-width="0.5"/>
  
  <!-- Sidebar icons -->
  <rect x="5" y="9" width="1" height="1" rx="0.2" fill="white"/>
  <rect x="5" y="12" width="1" height="1" rx="0.2" fill="white"/>
  <rect x="5" y="15" width="1" height="1" rx="0.2" fill="white"/>
  <rect x="5" y="18" width="1" height="1" rx="0.2" fill="white"/>
</svg> 